<svg width="100" height="100" xmlns="http://www.w3.org/2000/svg">
 <g>
  <title>background</title>
  <rect x="-1" y="-1" width="27.973995" height="27.973995" id="canvas_background" fill="none"/>
 </g>

 <g>
  <title>Layer 1</title>
  <path fill-rule="evenodd" clip-rule="evenodd" fill="#6b4e71" stroke="#FFFFFF" stroke-width="3" stroke-miterlimit="10" d="m85.682,71.594l0,16.735l-2.712,0.063l0,-16.798c0,-1.186 -2.208,-1.938 -2.84,-2.186c-1.672,-0.56 -4.168,-1.496 -4.168,-4.543c0,-2.177 0.68,-3.928 1.248,-5.424c0.56,-1.305 0.992,-2.488 0.992,-3.801c0,-2.424 -1.424,-5.039 -4.544,-5.039c-3.048,0 -4.488,2.615 -4.488,5.039c0,1.312 0.44,2.496 1,3.801c0.56,1.496 1.248,3.247 1.248,5.424c0,3.047 -2.56,3.983 -4.24,4.543c-0.624,0.248 -2.992,1 -2.992,2.186l0,16.799l-2.616,-0.063l0,-16.736c-0.056,-2.929 3.304,-4.113 5.104,-4.737c2.312,-0.743 2,-1.184 2,-1.991c0,-1.681 -0.56,-3.049 -1.064,-4.424c-0.616,-1.496 -1.176,-2.992 -1.176,-4.801c0,-3.855 2.496,-7.721 7.224,-7.721c4.8,0 7.288,3.865 7.288,7.721c0,1.809 -0.616,3.305 -1.184,4.801c-0.496,1.375 -1.056,2.743 -1.056,4.424c0,0.808 0.808,1.248 3.048,1.991c1.808,0.623 3.928,2.248 3.928,4.737z" id="svg_1"/>
  <path fill="#6b4e71" stroke="#FFFFFF" stroke-width="3" stroke-miterlimit="10" d="m57.689,63.434c-2.368,-1.336 -4.488,-0.178 -5.672,1.239c-0.056,0.071 -0.12,0.144 -0.176,0.224c-0.048,0.057 -0.096,0.112 -0.136,0.176c-0.04,0.064 -0.08,0.129 -0.12,0.184l-0.024,-0.008c-0.608,0.761 -1.224,1.545 -1.552,1.961c-0.16,0.199 -0.256,0.32 -0.256,0.32l-5.784,7.111c-0.856,-1.271 -2.096,-3.144 -3.16,-4.871c-1.264,-2.057 -3.08,-2.608 -4.992,-3.186c-0.4,-0.119 -0.824,-0.247 -1.272,-0.399c-0.592,-0.2 -0.688,-0.776 -0.664,-1.224l0.063,0c0,-0.184 0.008,-0.367 0.016,-0.553c0.008,0 0.008,-0.008 0.008,-0.008c0.016,-0.127 0.016,-0.256 0.04,-0.375c0,-0.009 0,-0.009 0,-0.017c0.152,-1.272 0.592,-2.376 0.992,-3.496c0.584,-1.504 1.2,-3.008 1.2,-4.824c0,-3.88 -2.512,-7.769 -7.336,-7.769c-4.76,0 -7.264,3.889 -7.264,7.769c0,1.816 0.56,3.32 1.184,4.824c0.4,1.104 0.832,2.192 0.992,3.448c-0.016,0.152 0,0.312 0.048,0.473c0.016,0.176 0.024,0.352 0.024,0.527l0.04,0c0,0.248 -0.032,0.552 -0.168,0.791c-0.056,0.097 -0.216,0.377 -0.816,0.545c-3.416,0.92 -6.352,1.872 -7.736,4.271c-0.856,1.48 -1.512,4.129 -2.088,7.336c-0.384,2.168 -0.728,4.593 -1.072,7.08c-0.184,1.336 -0.36,2.617 -0.496,3.377l2.84,0c0.12,-0.729 0.256,-1.705 0.432,-2.992c0.016,-0.104 0.032,-0.208 0.04,-0.312c0.288,-2.056 0.656,-4.72 1.104,-7.152c0.472,-2.543 1.032,-4.84 1.664,-5.936c0.744,-1.288 2.664,-2.016 5,-2.688c0.008,0.008 0.008,0.008 0.008,0c0.336,-0.088 0.68,-0.184 1.032,-0.28c1.136,-0.312 2.008,-0.952 2.52,-1.864c0.848,-1.504 0.448,-3.191 0.376,-3.448c0,-0.008 0,-0.008 -0.008,-0.016c-0.192,-1.608 -0.72,-2.96 -1.16,-4.16c-0.568,-1.312 -1.008,-2.512 -1.008,-3.824c0,-2.44 1.44,-5.071 4.512,-5.071c3.136,0 4.576,2.631 4.576,5.071c0,1.312 -0.44,2.513 -1,3.824c-0.448,1.192 -0.976,2.544 -1.176,4.136c0,0.008 -0.008,0.017 -0.008,0.024c-0.44,1.575 -0.184,4.184 2.24,5.104c0.048,0.023 0.104,0.048 0.16,0.063c0.472,0.16 0.92,0.296 1.352,0.425c1.824,0.551 2.736,0.863 3.416,1.967c1.872,3.049 4.264,6.512 4.296,6.545c0.032,0.048 0.064,0.088 0.104,0.127c0.248,0.297 0.608,0.465 0.992,0.48c0.424,0.023 0.832,-0.16 1.104,-0.48c0.008,-0.016 0.024,-0.023 0.032,-0.039l7.776,-9.561l1,-1.232c0.048,-0.056 0.096,-0.119 0.128,-0.191c0.032,-0.064 0.176,-0.297 0.4,-0.544c0.424,-0.464 1.152,-0.968 2.056,-0.464c0.456,0.256 0.392,0.896 0.256,1.393c-0.088,0.311 -0.2,0.567 -0.248,0.664c-0.104,0.191 -0.464,0.711 -0.968,1.432c-1.28,1.8 -3.512,4.815 -5.016,6.855c-0.456,0.616 -0.872,1.184 -1.248,1.688c-0.744,1.016 -1.288,1.769 -1.504,2.08c-1.128,1.648 -2.064,2.064 -2.648,2.129c-0.672,0.063 -1.408,-0.272 -2.192,-1.025c-1.672,-1.591 -2.711,-2.583 -3.344,-3.184c-0.736,-0.703 -0.928,-0.888 -0.928,-0.888c-0.4,-0.376 -0.984,-0.487 -1.496,-0.28c-0.48,0.209 -0.808,0.648 -0.856,1.168c-0.008,0.025 -0.008,0.057 -0.008,0.089l-0.12,3.983l-0.2,6.344l0,0.041l2.8,0l0.224,-7.152c0.536,0.512 1.192,1.136 1.992,1.904c1.408,1.344 2.896,1.943 4.416,1.783c1.712,-0.176 3.28,-1.303 4.664,-3.336c0.296,-0.424 1.4,-1.92 2.688,-3.656c0,-0.008 0.008,-0.016 0.016,-0.023c2.192,-2.969 3.752,-5.08 4.768,-6.504c0,0 0.016,-0.024 0.048,-0.072c0.008,-0.008 0.008,-0.016 0.016,-0.031c0.016,-0.033 0.041,-0.064 0.064,-0.104c0.376,-0.585 1.44,-2.272 1.736,-3c0.626,-2.049 0.058,-3.841 -1.535,-4.736z" id="svg_2"/>
  <path d="m21.034,77.904l-2.568,0c0.231,-0.535 0.784,-0.888 1.4,-0.84c0.535,0.049 0.975,0.385 1.168,0.84z" id="svg_3" fill="#6b4e71"/>
  <path d="m38.474,77.017c0,0 0.192,0.185 0.928,0.888l-3.28,0c0.048,-0.52 0.375,-0.959 0.856,-1.168c0.511,-0.208 1.095,-0.096 1.496,0.28z" id="svg_4" fill="#6b4e71"/>
  <g id="svg_5">
   <g id="svg_6">
    <path fill-rule="evenodd" clip-rule="evenodd" d="m85.682,71.594l0,16.735l-2.712,0.063l0,-16.798c0,-1.186 -2.208,-1.938 -2.84,-2.186c-1.672,-0.56 -4.168,-1.496 -4.168,-4.543c0,-2.177 0.68,-3.928 1.248,-5.424c0.56,-1.305 0.992,-2.488 0.992,-3.801c0,-2.424 -1.424,-5.039 -4.544,-5.039c-3.048,0 -4.488,2.615 -4.488,5.039c0,1.312 0.44,2.496 1,3.801c0.56,1.496 1.248,3.247 1.248,5.424c0,3.047 -2.56,3.983 -4.24,4.543c-0.624,0.248 -2.992,1 -2.992,2.186l0,16.799l-2.616,-0.063l0,-16.736c-0.056,-2.929 3.304,-4.113 5.104,-4.737c2.312,-0.743 2,-1.184 2,-1.991c0,-1.681 -0.56,-3.049 -1.064,-4.424c-0.616,-1.496 -1.176,-2.992 -1.176,-4.801c0,-3.855 2.496,-7.721 7.224,-7.721c4.8,0 7.288,3.865 7.288,7.721c0,1.809 -0.616,3.305 -1.184,4.801c-0.496,1.375 -1.056,2.743 -1.056,4.424c0,0.808 0.808,1.248 3.048,1.991c1.808,0.623 3.928,2.248 3.928,4.737z" id="svg_7" fill="#6b4e71"/>
   </g>
  </g>
  <g id="svg_8">
   <g id="svg_9">
    <path d="m57.689,63.434c-2.368,-1.336 -4.488,-0.178 -5.672,1.239c-0.056,0.071 -0.12,0.144 -0.176,0.224c-0.048,0.057 -0.096,0.112 -0.136,0.176c-0.04,0.064 -0.08,0.129 -0.12,0.184l-0.024,-0.008c-0.608,0.761 -1.224,1.545 -1.552,1.961c-0.16,0.199 -0.256,0.32 -0.256,0.32l-5.784,7.111c-0.856,-1.271 -2.096,-3.144 -3.16,-4.871c-1.264,-2.057 -3.08,-2.608 -4.992,-3.186c-0.4,-0.119 -0.824,-0.247 -1.272,-0.399c-0.592,-0.2 -0.688,-0.776 -0.664,-1.224l0.063,0c0,-0.184 0.008,-0.367 0.016,-0.553c0.008,0 0.008,-0.008 0.008,-0.008c0.016,-0.127 0.016,-0.256 0.04,-0.375c0,-0.009 0,-0.009 0,-0.017c0.152,-1.272 0.592,-2.376 0.992,-3.496c0.584,-1.504 1.2,-3.008 1.2,-4.824c0,-3.88 -2.512,-7.769 -7.336,-7.769c-4.76,0 -7.264,3.889 -7.264,7.769c0,1.816 0.56,3.32 1.184,4.824c0.4,1.104 0.832,2.192 0.992,3.448c-0.016,0.152 0,0.312 0.048,0.473c0.016,0.176 0.024,0.352 0.024,0.527l0.04,0c0,0.248 -0.032,0.552 -0.168,0.791c-0.056,0.097 -0.216,0.377 -0.816,0.545c-3.416,0.92 -6.352,1.872 -7.736,4.271c-0.856,1.48 -1.512,4.129 -2.088,7.336c-0.384,2.168 -0.728,4.593 -1.072,7.08c-0.184,1.336 -0.36,2.617 -0.496,3.377l2.84,0c0.12,-0.729 0.256,-1.705 0.432,-2.992c0.016,-0.104 0.032,-0.208 0.04,-0.312c0.288,-2.056 0.656,-4.72 1.104,-7.152c0.472,-2.543 1.032,-4.84 1.664,-5.936c0.744,-1.288 2.664,-2.016 5,-2.688c0.008,0.008 0.008,0.008 0.008,0c0.336,-0.088 0.68,-0.184 1.032,-0.28c1.136,-0.312 2.008,-0.952 2.52,-1.864c0.848,-1.504 0.448,-3.191 0.376,-3.448c0,-0.008 0,-0.008 -0.008,-0.016c-0.192,-1.608 -0.72,-2.96 -1.16,-4.16c-0.568,-1.312 -1.008,-2.512 -1.008,-3.824c0,-2.44 1.44,-5.071 4.512,-5.071c3.136,0 4.576,2.631 4.576,5.071c0,1.312 -0.44,2.513 -1,3.824c-0.448,1.192 -0.976,2.544 -1.176,4.136c0,0.008 -0.008,0.017 -0.008,0.024c-0.44,1.575 -0.184,4.184 2.24,5.104c0.048,0.023 0.104,0.048 0.16,0.063c0.472,0.16 0.92,0.296 1.352,0.425c1.824,0.551 2.736,0.863 3.416,1.967c1.872,3.049 4.264,6.512 4.296,6.545c0.032,0.048 0.064,0.088 0.104,0.127c0.248,0.297 0.608,0.465 0.992,0.48c0.424,0.023 0.832,-0.16 1.104,-0.48c0.008,-0.016 0.024,-0.023 0.032,-0.039l7.776,-9.561l1,-1.232c0.048,-0.056 0.096,-0.119 0.128,-0.191c0.032,-0.064 0.176,-0.297 0.4,-0.544c0.424,-0.464 1.152,-0.968 2.056,-0.464c0.456,0.256 0.392,0.896 0.256,1.393c-0.088,0.311 -0.2,0.567 -0.248,0.664c-0.104,0.191 -0.464,0.711 -0.968,1.432c-1.28,1.8 -3.512,4.815 -5.016,6.855c-0.456,0.616 -0.872,1.184 -1.248,1.688c-0.744,1.016 -1.288,1.769 -1.504,2.08c-1.128,1.648 -2.064,2.064 -2.648,2.129c-0.672,0.063 -1.408,-0.272 -2.192,-1.025c-1.672,-1.591 -2.711,-2.583 -3.344,-3.184c-0.736,-0.703 -0.928,-0.888 -0.928,-0.888c-0.4,-0.376 -0.984,-0.487 -1.496,-0.28c-0.48,0.209 -0.808,0.648 -0.856,1.168c-0.008,0.025 -0.008,0.057 -0.008,0.089l-0.12,3.983l-0.2,6.344l0,0.041l2.8,0l0.224,-7.152c0.536,0.512 1.192,1.136 1.992,1.904c1.408,1.344 2.896,1.943 4.416,1.783c1.712,-0.176 3.28,-1.303 4.664,-3.336c0.296,-0.424 1.4,-1.92 2.688,-3.656c0,-0.008 0.008,-0.016 0.016,-0.023c2.192,-2.969 3.752,-5.08 4.768,-6.504c0,0 0.016,-0.024 0.048,-0.072c0.008,-0.008 0.008,-0.016 0.016,-0.031c0.016,-0.033 0.041,-0.064 0.064,-0.104c0.376,-0.585 1.44,-2.272 1.736,-3c0.626,-2.049 0.058,-3.841 -1.535,-4.736z" id="svg_10" fill="#6b4e71"/>
   </g>
   <g id="svg_11">
    <g id="svg_12">
     <path d="m21.146,78.576l-0.824,9.785l-2.808,0c0,-0.041 0.008,-0.08 0.008,-0.121l0.832,-9.896c0.016,-0.16 0.048,-0.304 0.112,-0.44c0.231,-0.535 0.784,-0.888 1.4,-0.84c0.536,0.049 0.976,0.385 1.168,0.84c0.088,0.209 0.127,0.433 0.112,0.672z" id="svg_13" fill="#6b4e71"/>
    </g>
   </g>
  </g>
  <path fill="#6b4e71" d="m30.147,68.841c-0.056,0.071 -0.12,0.144 -0.176,0.224c-0.096,0.112 -0.184,0.232 -0.28,0.352c-0.608,0.761 -1.224,1.545 -1.552,1.961c-0.16,0.199 -0.256,0.32 -0.256,0.32" id="svg_14"/>
  <g id="svg_15">
   <path d="m19.711,35.082l3.264,0l5.84,5.832l5.832,-5.832l3.272,0c3.6,0 6.536,-2.937 6.536,-6.545l0,-10.687c0,-3.607 -2.936,-6.543 -6.536,-6.543l-18.208,0c-3.608,0 -6.544,2.936 -6.544,6.543l0,10.688c0,3.608 2.936,6.544 6.544,6.544zm-3.744,-17.232c0,-2.063 1.68,-3.743 3.744,-3.743l18.208,0c2.056,0 3.736,1.68 3.736,3.743l0,10.688c0,2.064 -1.68,3.744 -3.736,3.744l-4.432,0l-4.672,4.672l-1.872,-1.871l-0.009,0l-2.791,-2.801l-4.433,0c-2.064,0 -3.744,-1.68 -3.744,-3.744l0,-10.688l0.001,0z" id="svg_16" fill="#6b4e71"/>
   <path d="m28.386,26.979c-0.871,0 -1.613,0.667 -1.613,1.558c0,0.89 0.742,1.558 1.613,1.558c0.891,0 1.632,-0.668 1.632,-1.558c0,-0.891 -0.742,-1.558 -1.632,-1.558z" id="svg_17" fill="#6b4e71"/>
   <path d="m28.868,19.617c0.982,0 1.632,0.63 1.632,1.575c0,1.021 -0.798,1.614 -1.836,1.614l-1.521,0l0.186,3.021l2.281,0l0.092,-1.074c2.188,-0.297 3.579,-1.596 3.579,-3.562c0,-2.446 -1.91,-4.078 -4.505,-4.078c-2.819,0 -4.376,1.575 -4.525,3.968l2.912,0c0.074,-0.889 0.722,-1.464 1.705,-1.464z" id="svg_18" fill="#6b4e71"/>
  </g>
  <g id="svg_19">
   <path d="m64.525,35.083l3.264,0l5.84,5.831l5.832,-5.831l3.272,0c3.6,0 6.536,-2.937 6.536,-6.544l0,-10.689c0,-3.607 -2.936,-6.543 -6.536,-6.543l-18.208,0c-3.608,0 -6.544,2.936 -6.544,6.543l0,10.689c0,3.607 2.936,6.544 6.544,6.544zm-3.743,-17.233c0,-2.063 1.68,-3.743 3.744,-3.743l18.208,0c2.056,0 3.736,1.68 3.736,3.743l0,10.689c0,2.064 -1.68,3.744 -3.736,3.744l-4.432,0l-4.672,4.672l-1.872,-1.872l-0.009,0l-2.791,-2.8l-4.433,0c-2.064,0 -3.744,-1.68 -3.744,-3.744l0,-10.689l0.001,0z" id="svg_20" fill="#6b4e71"/>
   <path d="m73.503,29.994c0.89,0 1.632,-0.668 1.632,-1.559c0,-0.889 -0.742,-1.557 -1.632,-1.557c-0.89,0 -1.613,0.668 -1.613,1.557c0,0.891 0.724,1.559 1.613,1.559z" id="svg_21" fill="#6b4e71"/>
   <polygon points="74.82,25.674 75.079,17.182 71.928,17.182 72.187,25.674  " id="svg_22" fill="#6b4e71"/>
  </g>
 </g>
</svg>